<svg width="291" height="312" viewBox="0 0 291 312" fill="none" xmlns="http://www.w3.org/2000/svg">
<path d="M65.15 -5.00679e-06H76.4V14.55H65.15V-5.00679e-06ZM6.5 9.14999H135.95V32.55H125.15V18.15H16.85V32.55H6.5V9.14999ZM41.9 20.7H52.4V59.4H41.9V20.7ZM89.3 20.7H99.8V59.4H89.3V20.7ZM20 27.3H121.7V34.5H20V27.3ZM22.4 40.95H119.9V47.85H22.4V40.95ZM4.85 54.6H137.45V63H4.85V54.6ZM44.3 57.15L52.55 60.6C42.5 73.2 23.9 84.75 7.55 90.45C6.05 87.75 2.9 84.15 0.8 82.05C16.85 77.55 35 67.65 44.3 57.15ZM99.05 56.7C107.9 67.35 125.45 76.8 141.95 81C139.55 83.1 136.4 87 134.9 89.7C118.1 84.3 100.4 72.75 90.8 60.15L99.05 56.7ZM39.2 90.75V98.1H102.05V90.75H39.2ZM39.2 104.4V111.9H102.05V104.4H39.2ZM39.2 77.25V84.45H102.05V77.25H39.2ZM28.85 70.65H112.85V118.5H28.85V70.65ZM81.05 123.15L88.7 116.85C105.8 121.65 124.4 127.5 135.8 131.85L126.05 138.15C115.85 133.95 98.6 128.25 81.05 123.15ZM50.6 116.55L59.9 122.55C47.45 129.15 26.9 135 10.25 138C8.75 135.9 5.6 132.45 3.5 130.5C20.15 127.8 40.85 121.95 50.6 116.55ZM196.4 17.1H289.7V26.4H196.4V17.1ZM192.8 91.95H290.75V101.55H192.8V91.95ZM151.85 39.75H198.95V50.1H151.85V39.75ZM170.45 0.149993H181.4V138H170.45V0.149993ZM237.5 -5.00679e-06H248.3V77.25H237.5V-5.00679e-06ZM256.7 79.8H267.35V126.3C267.35 132.15 266.15 134.85 261.95 136.5C257.6 138 250.7 138 240.2 138C239.6 135.15 238.25 131.25 236.75 128.55C244.7 128.7 251.75 128.7 253.85 128.55C256.1 128.55 256.7 127.95 256.7 126.15V79.8ZM208.1 108.45L215.9 102.75C223.1 108.3 231.65 116.55 235.55 122.25L227.45 128.7C223.7 122.85 215.45 114.3 208.1 108.45ZM255.95 6.44999L261.2 0.149993C268.7 3.3 278.15 8.69999 282.95 12.45L277.4 19.5C272.6 15.6 263.3 10.05 255.95 6.44999ZM214.25 62.4V73.8H272.75V62.4H214.25ZM214.25 43.65V54.75H272.75V43.65H214.25ZM204.05 35.55H283.25V81.75H204.05V35.55ZM84.95 181.25H126.05V191.75H84.95V181.25ZM84.95 215H126.05V225.2H84.95V215ZM84.2 249.05H126.2V259.4H84.2V249.05ZM120.8 181.25H131.6V295.7C131.6 302.45 130.25 305.9 125.9 307.85C121.55 309.65 114.2 309.95 102.5 309.95C102.2 306.8 100.55 301.7 98.9 298.7C107.45 299 115.25 299 117.65 298.85C120.05 298.7 120.8 297.95 120.8 295.7V181.25ZM79.55 181.25H90.35V233C90.35 256.85 87.95 289.85 72.05 311.45C70.25 309.65 65.6 306.65 62.9 305.6C78.2 284.9 79.55 255.35 79.55 233V181.25ZM19.25 181.25H58.85V191.75H19.25V181.25ZM19.25 215H58.85V225.2H19.25V215ZM18.95 249.05H58.7V259.4H18.95V249.05ZM52.7 181.25H63.2V295.1C63.2 301.1 62 304.4 58.1 306.2C54.05 308 47.6 308.15 37.7 308.15C37.25 305.3 35.75 300.65 34.4 297.8C41.45 297.95 47.9 297.95 49.85 297.95C51.95 297.8 52.7 297.2 52.7 295.25V181.25ZM14.75 181.25H25.25V234.8C25.25 257.9 23.3 290.15 9.65 311.15C7.7 309.5 3.05 306.65 0.5 305.6C13.55 285.35 14.75 256.55 14.75 234.95V181.25ZM183.95 225.35V249.5H258.2V225.35H183.95ZM173 215.3H269.75V259.55H173V215.3ZM156.35 188H286.1V198.5H156.35V188ZM214.85 173H226.25V219.8H214.85V173ZM230.9 253.4H242.3V293.6C242.3 298.1 243.5 298.85 249.8 298.85C252.95 298.85 267.5 298.85 271.55 298.85C277.7 298.85 278.6 296 279.2 276.65C281.75 278.75 286.7 280.55 289.85 281.3C288.5 303.95 285.2 309.65 272.45 309.65C269.45 309.65 251.6 309.65 248.75 309.65C234.65 309.65 230.9 306.05 230.9 293.75V253.4ZM196.7 257.3H208.7C205.55 284.75 196.55 302.3 159.05 311.3C158 308.3 154.85 303.5 152.45 301.1C186.8 294.05 194 279.8 196.7 257.3Z" fill="#0EC3DE"/>
</svg>
